<svg width="49" height="49" viewBox="0 0 49 49" fill="none" xmlns="http://www.w3.org/2000/svg">
<g id="arrows 2">
<path id="XMLID_1_" d="M44.6359 32.1085C45.0187 32.9093 44.4062 33.9287 43.4875 34.0015C42.875 34.0743 42.3391 33.5646 41.8797 33.2006C36.0609 27.6671 30.2422 22.1337 24.4234 16.6003C18.5281 22.1337 12.7094 27.8128 6.81406 33.3462C6.27813 34.0015 5.12969 34.1471 4.51719 33.4918C3.90469 32.9093 4.21094 31.9628 4.82344 31.4532C10.9484 25.6285 17.15 19.731 23.275 13.9064C23.8109 13.2511 24.9594 13.2511 25.4953 13.9064C31.6203 19.5854 37.5922 25.4101 43.6406 31.0891C44.1 31.4532 44.4062 31.7444 44.6359 32.1085Z" fill="#102447"/>
</g>
</svg>
