<svg width="50" height="51" viewBox="0 0 50 51" fill="none" xmlns="http://www.w3.org/2000/svg">
<g id="arrows 1">
<path id="XMLID_1_" d="M4.86406 17.7362C4.48125 16.919 5.09375 15.8789 6.0125 15.8046C6.625 15.7303 7.16094 16.2503 7.62031 16.6218C13.4391 22.2682 19.2578 27.9145 25.0766 33.5609C30.9719 27.9145 36.7906 22.1196 42.6859 16.4732C43.2219 15.8046 44.3703 15.656 44.9828 16.3246C45.5953 16.919 45.2891 17.8848 44.6766 18.4049C38.5516 24.3484 32.35 30.3662 26.225 36.3098C25.6891 36.9784 24.5406 36.9784 24.0047 36.3098C17.8797 30.5148 11.9078 24.5713 5.85938 18.7763C5.4 18.4049 5.09375 18.1077 4.86406 17.7362Z" fill="black"/>
</g>
</svg>
