<svg width="46" height="46" viewBox="0 0 46 46" fill="none" xmlns="http://www.w3.org/2000/svg">
<g id="coffee-cup-svgrepo-com 1" clip-path="url(#clip0_1_53)">
<g id="Group">
<g id="Group_2">
<g id="Group_3">
<path id="Vector" d="M36.5119 3.97408H36.328L35.9085 1.87696C35.691 0.789352 34.7282 0 33.619 0H12.381C11.2718 0 10.309 0.789352 10.0915 1.87696L9.67202 3.97408H9.48812C8.63896 3.97408 7.94817 4.66488 7.94817 5.51404V7.10367C7.94817 7.95283 8.63896 8.64363 9.48812 8.64363H10.3637L10.6729 15.9089C10.3228 15.9521 9.99273 16.1142 9.74694 16.3707C9.45792 16.6723 9.30233 17.0845 9.32012 17.5018L10.098 35.7823C10.1322 36.5906 10.7792 37.2259 11.5812 37.2542L11.8259 43.0033C11.8971 44.6838 13.2705 46 14.9525 46H31.0475C32.7295 46 34.1028 44.6838 34.1742 43.0035L34.4189 37.2543C35.2209 37.226 35.8678 36.5907 35.9021 35.7824V35.7826L36.68 17.5018C36.6978 17.0846 36.5422 16.6724 36.2532 16.3708C36.0074 16.1143 35.6772 15.9522 35.3272 15.909L35.6364 8.64363H36.512C37.3611 8.64363 38.0519 7.95283 38.0519 7.10367V5.51404C38.0518 4.66488 37.361 3.97408 36.5119 3.97408ZM11.5528 2.16915C11.6313 1.77582 11.9797 1.49028 12.3809 1.49028H33.6189C34.0201 1.49028 34.3685 1.77582 34.4471 2.16915L34.8081 3.97408H11.1918L11.5528 2.16915ZM32.6852 42.9402C32.6478 43.8203 31.9285 44.5097 31.0475 44.5097H14.9525C14.0715 44.5097 13.3522 43.8203 13.3148 42.9401L13.0728 37.257H32.9272L32.6852 42.9402ZM34.4131 35.7192V35.7193C34.4119 35.746 34.3902 35.7668 34.3635 35.7668H11.6365C11.6098 35.7668 11.5881 35.746 11.5869 35.7192L10.809 17.4386C10.8088 17.4327 10.8081 17.4174 10.8228 17.4021C10.8375 17.3868 10.8529 17.3868 10.8587 17.3868H35.1413C35.1472 17.3868 35.1625 17.3868 35.1772 17.4021C35.1918 17.4174 35.1912 17.4328 35.191 17.4385L34.4131 35.7192ZM11.8553 8.64363H34.1447L33.836 15.8963H12.1639L11.8553 8.64363ZM36.5616 7.10367C36.5616 7.13099 36.5392 7.15335 36.5119 7.15335H9.48812C9.4608 7.15335 9.43845 7.13099 9.43845 7.10367V5.51404C9.43845 5.48672 9.4608 5.46436 9.48812 5.46436H36.5119C36.5392 5.46436 36.5616 5.48672 36.5616 5.51404V7.10367Z" fill="url(#paint0_linear_1_53)"/>
<path id="Vector_2" d="M23 20.6653C19.7404 20.6653 17.0886 23.3171 17.0886 26.5767C17.0886 29.8364 19.7403 32.4882 23 32.4882C26.2598 32.4882 28.9115 29.8364 28.9115 26.5767C28.9115 23.3171 26.2597 20.6653 23 20.6653ZM23 30.9979C20.5622 30.9979 18.5788 29.0145 18.5788 26.5767C18.5788 24.1389 20.5622 22.1556 23 22.1556C25.4378 22.1556 27.4212 24.1389 27.4212 26.5767C27.4212 29.0145 25.4377 30.9979 23 30.9979Z" fill="url(#paint1_linear_1_53)"/>
</g>
</g>
</g>
</g>
<defs>
<linearGradient id="paint0_linear_1_53" x1="7.94817" y1="1.91224" x2="40.2285" y2="3.6569" gradientUnits="userSpaceOnUse">
<stop stop-color="#8DB3E5"/>
<stop offset="1" stop-color="#3D70E0"/>
</linearGradient>
<linearGradient id="paint1_linear_1_53" x1="17.0886" y1="21.1568" x2="29.7172" y2="22.1997" gradientUnits="userSpaceOnUse">
<stop stop-color="#8DB3E5"/>
<stop offset="1" stop-color="#3D70E0"/>
</linearGradient>
<clipPath id="clip0_1_53">
<rect width="46" height="46" fill="white"/>
</clipPath>
</defs>
</svg>
