<svg width="17" height="17" viewBox="0 0 17 17" fill="none" xmlns="http://www.w3.org/2000/svg">
<g id="281830_phone_circle_mobile_communication_call_icon 2" clip-path="url(#clip0_1_148)">
<g id="Group">
<g id="Group_2">
<g id="Group_3">
<g id="Group_4">
<path id="Vector" d="M8.37549 1.29072C12.3455 1.29072 15.5755 4.52072 15.5755 8.49072C15.5755 12.4607 12.3455 15.6907 8.37549 15.6907C4.40549 15.6907 1.17549 12.4607 1.17549 8.49072C1.17549 4.52072 4.40549 1.29072 8.37549 1.29072ZM8.37549 0.490723C3.95749 0.490723 0.375488 4.07232 0.375488 8.49072C0.375488 12.9095 3.95749 16.4907 8.37549 16.4907C12.7943 16.4907 16.3755 12.9095 16.3755 8.49072C16.3755 4.07232 12.7943 0.490723 8.37549 0.490723Z" fill="white"/>
</g>
</g>
</g>
<path id="Vector_2" fill-rule="evenodd" clip-rule="evenodd" d="M6.12388 4.40784C6.60668 4.31664 6.92308 4.86104 7.16388 5.23664C7.39828 5.60144 7.68668 6.02944 7.57028 6.50424C7.50548 6.77064 7.26468 6.91584 7.08268 7.07304C6.90308 7.22824 6.62948 7.37064 6.56308 7.60904C6.45468 7.99584 6.69188 8.40184 6.83868 8.63304C7.17228 9.15544 7.57548 9.62624 8.09028 10.0466C8.33948 10.2506 8.68548 10.523 9.03228 10.453C9.55028 10.3482 9.68708 9.70944 10.2511 9.62424C10.7879 9.54304 11.1511 9.93224 11.4543 10.193C11.7463 10.4454 12.2175 10.7686 12.1855 11.201C12.1667 11.4494 11.9675 11.6034 11.7947 11.7534C11.6191 11.9066 11.4651 12.0786 11.2915 12.1918C10.8711 12.4662 10.3555 12.6006 9.76348 12.5822C9.18308 12.5642 8.72068 12.367 8.30108 12.1434C7.48068 11.7058 6.83228 11.0902 6.22148 10.4042C5.62068 9.72984 5.06588 8.93144 4.75908 8.04864C4.37628 6.94624 4.57868 5.81384 5.19828 5.10744C5.30308 4.98744 5.46868 4.86224 5.62028 4.73344C5.77148 4.60424 5.91148 4.44784 6.12388 4.40784Z" fill="white"/>
</g>
</g>
<defs>
<clipPath id="clip0_1_148">
<rect width="16" height="16" fill="white" transform="translate(0.375488 0.490723)"/>
</clipPath>
</defs>
</svg>
