<svg width="46" height="49" viewBox="0 0 46 49" fill="none" xmlns="http://www.w3.org/2000/svg">
<g id="project-management-timeline-icon 1" clip-path="url(#clip0_1_61)">
<g id="Group">
<path id="Vector" fill-rule="evenodd" clip-rule="evenodd" d="M42.3441 30.4207L43.8707 31.9357C44.2725 32.3344 44.2725 32.9723 43.8707 33.371L42.6253 34.607C42.9467 35.2449 43.2279 35.9227 43.3886 36.6404H44.9956C45.5581 36.6404 46.0402 37.1188 46.0402 37.677V39.8299C46.0402 40.3881 45.5581 40.8666 44.9956 40.8666H43.2681C43.0672 41.5443 42.7458 42.2221 42.3843 42.8202L43.5092 43.9365C43.9109 44.3352 43.9109 44.9731 43.5092 45.3718L41.9825 46.8869C41.5808 47.2856 40.938 47.2856 40.5362 46.8869L39.2908 45.6509C38.648 45.9699 37.9651 46.249 37.2419 46.4085V48.0033C37.2419 48.5614 36.7598 49.0399 36.1974 49.0399H34.0279C33.4655 49.0399 32.9834 48.5614 32.9834 48.0033V46.249C32.3004 46.0496 31.6175 45.7307 31.0148 45.3718L29.89 46.4882C29.4882 46.8869 28.8454 46.8869 28.4437 46.4882L26.917 44.9731C26.5153 44.5745 26.5153 43.9365 26.917 43.5378L28.1624 42.3019C27.841 41.664 27.5598 40.9862 27.3991 40.2685H25.7921C25.2297 40.2685 24.7476 39.7901 24.7476 39.2319V37.0789C24.7476 36.5207 25.2297 36.0423 25.7921 36.0423H27.5196C27.7205 35.3645 28.0419 34.6867 28.4035 34.0887L27.3188 33.0122C26.917 32.6135 26.917 31.9756 27.3188 31.5769L28.8454 30.0618C29.2472 29.6631 29.89 29.6631 30.2917 30.0618L31.5371 31.2978C32.1799 30.9788 32.8629 30.6998 33.586 30.5403V28.9455C33.586 28.3873 34.0681 27.9089 34.6306 27.9089H36.8C37.3624 27.9089 37.8445 28.3873 37.8445 28.9455V30.6599C38.5275 30.8592 39.2105 31.1782 39.8131 31.537L40.938 30.4207C41.2594 30.022 41.9424 30.022 42.3441 30.4207ZM16.6323 32.773C16.0699 32.773 15.6279 32.2148 15.6279 31.5769C15.6279 30.8991 16.0699 30.3808 16.6323 30.3808H21.614C22.1764 30.3808 22.6183 30.939 22.6183 31.5769C22.6183 32.2547 22.1764 32.773 21.614 32.773H16.6323ZM18.1188 44.7738C18.8017 44.7738 19.324 45.332 19.324 45.9699C19.324 46.6477 18.7616 47.166 18.1188 47.166H2.8524C2.08908 47.166 1.36594 46.847 0.843668 46.3287C0.321397 45.8104 0 45.1326 0 44.3352V2.83076C0 2.03336 0.321397 1.35557 0.843668 0.837266C1.36594 0.318958 2.04891 0 2.8524 0H37.6838C38.4472 0 39.1703 0.318958 39.6926 0.837266C40.2148 1.35557 40.5362 2.03336 40.5362 2.83076V22.0879C40.5362 22.7657 39.9738 23.284 39.331 23.284C38.648 23.284 38.1258 22.7258 38.1258 22.0879V2.83076C38.1258 2.71115 38.0856 2.63141 38.0052 2.55167C37.9249 2.47193 37.8445 2.43206 37.724 2.43206H2.8524C2.73188 2.43206 2.65153 2.47193 2.57118 2.55167C2.49083 2.59154 2.45065 2.71115 2.45065 2.83076V44.415C2.45065 44.5346 2.49083 44.6143 2.57118 44.6941C2.65153 44.7738 2.73188 44.8137 2.8524 44.8137H18.1188V44.7738ZM7.55284 29.5435H11.8515C12.0926 29.5435 12.2533 29.703 12.2533 29.9422V33.6103C12.2533 33.8495 12.0926 34.0089 11.8515 34.0089H7.55284C7.31179 34.0089 7.15109 33.8495 7.15109 33.6103V29.9422C7.15109 29.703 7.31179 29.5435 7.55284 29.5435ZM7.55284 8.4524H11.8515C12.0926 8.4524 12.2533 8.61188 12.2533 8.8511V12.5191C12.2533 12.7583 12.0926 12.9178 11.8515 12.9178H7.55284C7.31179 12.9178 7.15109 12.7583 7.15109 12.5191V8.8511C7.15109 8.61188 7.31179 8.4524 7.55284 8.4524ZM16.6323 11.6819C16.0699 11.6819 15.6279 11.1237 15.6279 10.4858C15.6279 9.80797 16.0699 9.28967 16.6323 9.28967H30.5729C31.1354 9.28967 31.5773 9.84784 31.5773 10.4858C31.5773 11.1635 31.1354 11.6819 30.5729 11.6819H16.6323ZM8.79825 22.8853C8.51703 23.0846 8.15546 23.0448 7.87424 22.7657C7.83406 22.7258 7.83406 22.7258 7.79389 22.6859L6.5083 21.3702C6.22707 21.0911 6.30742 20.6526 6.62882 20.3336C6.99039 20.0545 7.47249 20.0146 7.75371 20.2937L8.43668 21.0114L10.6865 19.2172C10.9677 18.978 11.4498 19.0976 11.6908 19.4565C11.9721 19.8153 11.9319 20.3336 11.6105 20.5728L8.79825 22.8853ZM15.9493 21.8487C15.3869 21.8487 14.945 21.2905 14.945 20.6526C14.945 19.9748 15.3869 19.4565 15.9493 19.4565H29.89C30.4524 19.4565 30.8943 20.0146 30.8943 20.6526C30.8943 21.3303 30.4524 21.8487 29.89 21.8487H15.9493ZM35.3939 34.2482C37.724 34.2482 39.6524 36.1221 39.6524 38.4744C39.6524 40.7868 37.7642 42.7006 35.3939 42.7006C33.0638 42.7006 31.1354 40.8267 31.1354 38.4744C31.1354 36.1221 33.0638 34.2482 35.3939 34.2482Z" fill="url(#paint0_linear_1_61)"/>
</g>
</g>
<defs>
<linearGradient id="paint0_linear_1_61" x1="2.39963e-08" y1="2.03861" x2="49.2173" y2="5.85467" gradientUnits="userSpaceOnUse">
<stop stop-color="#8DB3E5"/>
<stop offset="1" stop-color="#3D70E0"/>
</linearGradient>
<clipPath id="clip0_1_61">
<rect width="46" height="49" fill="white"/>
</clipPath>
</defs>
</svg>
