<svg width="18" height="19" viewBox="0 0 18 19" fill="none" xmlns="http://www.w3.org/2000/svg">
<g id="sym 16">
<path id="Vector" d="M4.03631 2.6389C4.70249 2.26817 5.55155 2.38734 6.16548 2.79779C9.00002 4.42636 11.8084 6.08141 14.6299 7.73647C15.2961 8.09396 15.8839 8.7295 15.9231 9.52392C16.0407 10.411 15.5312 11.2584 14.7736 11.6689C12.0174 13.2842 9.26127 14.8863 6.5051 16.5016C6.13936 16.7002 5.78667 16.9386 5.38174 17.0445C4.08856 17.3755 2.74313 16.1574 2.8215 14.8466C2.87375 14.3037 3.135 13.8006 3.38319 13.3239C3.94487 12.2912 4.5588 11.2849 5.00293 10.1992C5.05518 10.1197 5.05518 10.0271 5.05518 9.93437C5.04211 9.81521 5.04211 9.68281 5.05518 9.56364C5.06824 9.47096 5.05518 9.37828 5.00293 9.29883C4.42818 7.93507 3.63137 6.70371 2.99132 5.39291C2.53413 4.38664 3.0305 3.0626 4.03631 2.6389Z" fill="white"/>
</g>
</svg>
