<svg width="50" height="50" viewBox="0 0 50 50" fill="none" xmlns="http://www.w3.org/2000/svg">
<g id="world-svgrepo-com 1" clip-path="url(#clip0_1_66)">
<g id="Group">
<path id="Vector" d="M50 25C50 38.7851 38.7846 50 25 50C22.6799 50 20.4432 49.6582 18.3098 49.0635L18.26 49.0965C18.2483 49.0798 18.2399 49.0616 18.2283 49.043C7.72824 46.0802 0 36.4366 0 25C0 11.2149 11.2149 0 25 0C27.3215 0 29.5568 0.34182 31.6902 0.936516L31.74 0.901588C31.7517 0.918354 31.7619 0.936516 31.7717 0.955143C42.2713 3.92023 50 13.5653 50 25ZM2.48822 23.785H11.4981C11.5879 21.0998 11.8878 18.4584 12.4313 15.8952H4.36172C3.28177 18.3317 2.63678 20.9917 2.48822 23.785ZM47.5113 26.2136H38.5033C38.4116 28.9002 38.1136 31.5421 37.5682 34.1053H45.6383C46.7182 31.6683 47.3632 29.0083 47.5113 26.2136ZM36.0766 26.2136H26.2131V34.1053H35.0898C35.6631 31.5468 35.9816 28.9049 36.0766 26.2136ZM26.215 36.5302V47.5118C27.3932 47.4484 28.55 47.3185 29.6751 47.0819C31.7717 43.8286 33.3867 40.2851 34.4667 36.5302H26.215ZM23.7864 36.5302H15.348C16.3432 40.2185 17.8413 43.7187 19.8047 46.9469C21.0928 47.2519 22.4228 47.4387 23.7864 47.5118V36.5302ZM23.7864 34.1048V26.2131H13.8964C13.9481 28.8983 14.228 31.5416 14.7579 34.1048H23.7864ZM11.4715 26.2136H2.48682C2.63538 29.0087 3.28037 31.6702 4.36032 34.1053H12.2986C11.7984 31.5333 11.5218 28.8951 11.4715 26.2136ZM13.9234 23.785H23.7869V15.8952H14.9084C14.3365 18.4537 14.0184 21.0951 13.9234 23.785ZM23.7864 13.4703V2.48868C22.6082 2.55202 21.4495 2.68195 20.3263 2.91852C18.2297 6.17188 16.6147 9.71537 15.5329 13.4703C15.5333 13.4703 23.7864 13.4703 23.7864 13.4703ZM26.215 13.4703H34.6516C33.655 9.78196 32.1582 6.28365 30.1948 3.05357C28.9067 2.74668 27.5767 2.56179 26.2131 2.48868V13.4703H26.215ZM26.215 15.8952V23.785H36.105C36.0533 21.1017 35.7734 18.4584 35.2416 15.8952H26.215ZM38.528 23.785H47.5132C47.3646 20.9899 46.7196 18.3298 45.6397 15.8952H37.7014C38.2016 18.4667 38.4782 21.1049 38.528 23.785ZM44.3716 36.5302H36.9731C36.0682 39.8585 34.7931 43.0467 33.1381 46.0318C37.8584 44.2002 41.8033 40.8286 44.3716 36.5302ZM16.4014 45.8632C14.8599 42.92 13.678 39.7901 12.8495 36.5316H5.62841C8.11477 40.6903 11.8818 43.9934 16.4014 45.8632ZM5.62841 13.4703H13.0283C13.9318 10.1419 15.2069 6.95378 16.8615 3.96867C12.1416 5.80025 8.19673 9.1719 5.62841 13.4703ZM33.5982 4.13678C35.1396 7.07999 36.3216 10.2099 37.15 13.4684H44.3716C41.8848 9.31021 38.1182 6.00702 33.5982 4.13678Z" fill="url(#paint0_linear_1_66)"/>
</g>
</g>
<defs>
<linearGradient id="paint0_linear_1_66" x1="2.60602e-08" y1="47.9215" x2="53.4074" y2="43.5107" gradientUnits="userSpaceOnUse">
<stop stop-color="#8DB3E5"/>
<stop offset="1" stop-color="#3D70E0"/>
</linearGradient>
<clipPath id="clip0_1_66">
<rect width="50" height="50" fill="white" transform="matrix(1 0 0 -1 0 50)"/>
</clipPath>
</defs>
</svg>
